<svg width="260" height="60" viewBox="0 0 260 60" fill="none" xmlns="http://www.w3.org/2000/svg">
<rect width="260" height="60" fill="#5965E0"/>
<g clip-path="url(#clip0)">
<path d="M112.307 27.0493L108.685 43.6827H99.2489L102.871 27.0493C103.155 25.7419 102.99 25.5009 101.653 25.5009H98.2468C96.9182 25.5009 96.64 25.7419 96.359 27.016C96.359 27.016 96.359 27.0382 96.359 27.0493L92.7367 43.6827H83.2919L86.9171 27.0493C87.201 25.7419 87.0363 25.5009 85.6964 25.5009H82.2898C80.9499 25.5009 80.6802 25.7446 80.3964 27.0493L76.7712 43.6827H67.335L72.8962 18.1495H80.561L81.776 20.3433C82.475 19.6252 83.321 19.0588 84.2591 18.6808C85.1972 18.3028 86.2063 18.1218 87.2209 18.1495H89.1768C92.8673 18.1495 95.3569 19.7145 96.2483 22.3598C97.8976 19.4181 100.288 18.1495 103.175 18.1495H105.133C110.677 18.1495 113.496 21.6424 112.307 27.0493Z" fill="white"/>
<path d="M141.084 27.0492L139.4 34.7829C138.222 40.1898 133.88 43.6826 128.33 43.6826H121.181C115.639 43.6826 112.82 40.187 113.999 34.7801L115.682 27.0492C116.857 21.6423 121.201 18.1494 126.753 18.1494H133.913C139.443 18.1494 142.265 21.6423 141.084 27.0492ZM131.639 27.0492C131.923 25.7418 131.758 25.5008 130.421 25.5008H127.015C125.675 25.5008 125.406 25.7446 125.122 27.0492L123.435 34.7801C123.151 36.0875 123.318 36.3285 124.655 36.3285H128.062C129.399 36.3285 129.672 36.0847 129.956 34.7801L131.639 27.0492Z" fill="white"/>
<path d="M199.976 25.0161C199.631 26.4675 198.796 27.7644 197.607 28.7001L192.801 32.578C191.649 33.5235 190.199 34.0553 188.694 34.0848H182.04L181.89 34.769C181.606 36.0764 181.77 36.3174 183.11 36.3174H197.508L195.907 43.6715H179.624C174.082 43.6715 171.263 40.1759 172.441 34.769L174.125 27.0381C175.303 21.6312 179.646 18.1383 185.196 18.1383H192.361C197.889 18.1494 200.748 21.4595 199.976 25.0161ZM190.09 27.0492C190.374 25.7418 190.21 25.5008 188.87 25.5008H185.463C184.129 25.498 183.846 25.7445 183.562 27.0492L182.993 29.7111H188.614C188.866 29.7009 189.108 29.6107 189.303 29.4542C189.497 29.2977 189.634 29.0835 189.693 28.8441L190.09 27.0492Z" fill="white"/>
<path d="M210.584 39.3476C210.062 41.7436 208.123 43.6854 205.191 43.6854C202.258 43.6854 201.168 41.7464 201.69 39.3476C202.213 36.9489 204.152 35.0127 207.084 35.0127C210.017 35.0127 211.098 36.9489 210.584 39.3476Z" fill="#4CD62B"/>
<path d="M230.829 18.1494L229.228 25.498L225.254 43.6799H215.82L219.795 25.498H215.085L216.689 18.1466L230.829 18.1494ZM223.823 13.3823C222.188 11.6096 222.687 8.56821 224.933 6.59325C227.178 4.61829 230.327 4.45764 231.97 6.23316C233.614 8.00869 233.106 11.0501 230.86 13.025C228.615 15 225.461 15.1607 223.823 13.3823Z" fill="white"/>
<path d="M245.973 21.8251L243.151 34.7801C242.867 36.0875 243.032 36.3285 244.369 36.3285H250.237L248.636 43.6826H240.889C235.347 43.6826 232.526 40.187 233.704 34.7801L236.525 21.8251H232.957L234.558 14.4709H238.135L239.447 8.4491H248.891L247.58 14.4709H255.006L253.396 21.8251H245.973Z" fill="white"/>
<path d="M30.5093 8.74548H42.4834L32.522 55.0005H20.5479L30.5093 8.74548Z" fill="white"/>
<path d="M48.0791 8.74548H60.0532L52.2919 44.9873H40.315L48.0791 8.74548Z" fill="white"/>
<path d="M12.7641 8.74548H24.7383L16.977 44.9873H5L12.7641 8.74548Z" fill="white"/>
<path d="M176.027 18.1494L158.531 43.6826H148.879L142.498 18.1494H152.834L155.613 34.9158L165.691 18.1633L176.027 18.1494Z" fill="white"/>
</g>
<defs>
<clipPath id="clip0">
<rect width="250" height="50" fill="white" transform="translate(5 5)"/>
</clipPath>
</defs>
</svg>
